<svg width="28" height="28" viewBox="0 0 28 28" fill="none" xmlns="http://www.w3.org/2000/svg">
<path d="M2.33325 7.00004C2.33325 6.69062 2.45617 6.39388 2.67496 6.17508C2.89375 5.95629 3.1905 5.83337 3.49992 5.83337H24.4999C24.8093 5.83337 25.1061 5.95629 25.3249 6.17508C25.5437 6.39388 25.6666 6.69062 25.6666 7.00004C25.6666 7.30946 25.5437 7.60621 25.3249 7.825C25.1061 8.04379 24.8093 8.16671 24.4999 8.16671H3.49992C3.1905 8.16671 2.89375 8.04379 2.67496 7.825C2.45617 7.60621 2.33325 7.30946 2.33325 7.00004V7.00004ZM2.33325 14.0374C2.33325 13.728 2.45617 13.4312 2.67496 13.2124C2.89375 12.9936 3.1905 12.8707 3.49992 12.8707H24.4999C24.8093 12.8707 25.1061 12.9936 25.3249 13.2124C25.5437 13.4312 25.6666 13.728 25.6666 14.0374C25.6666 14.3468 25.5437 14.6435 25.3249 14.8623C25.1061 15.0811 24.8093 15.204 24.4999 15.204H3.49992C3.1905 15.204 2.89375 15.0811 2.67496 14.8623C2.45617 14.6435 2.33325 14.3468 2.33325 14.0374V14.0374ZM3.49992 19.908C3.1905 19.908 2.89375 20.031 2.67496 20.2498C2.45617 20.4685 2.33325 20.7653 2.33325 21.0747C2.33325 21.3841 2.45617 21.6809 2.67496 21.8997C2.89375 22.1185 3.1905 22.2414 3.49992 22.2414H24.4999C24.8093 22.2414 25.1061 22.1185 25.3249 21.8997C25.5437 21.6809 25.6666 21.3841 25.6666 21.0747C25.6666 20.7653 25.5437 20.4685 25.3249 20.2498C25.1061 20.031 24.8093 19.908 24.4999 19.908H3.49992Z" fill="white"/>
</svg>
