<svg width="25" height="26" viewBox="0 0 25 26" fill="none" xmlns="http://www.w3.org/2000/svg">
<path fill-rule="evenodd" clip-rule="evenodd" d="M17 9.625C17 10.8185 16.5259 11.9631 15.682 12.807C14.8381 13.6509 13.6935 14.125 12.5 14.125C11.3065 14.125 10.1619 13.6509 9.31802 12.807C8.47411 11.9631 8 10.8185 8 9.625C8 8.43153 8.47411 7.28693 9.31802 6.44302C10.1619 5.59911 11.3065 5.125 12.5 5.125C13.6935 5.125 14.8381 5.59911 15.682 6.44302C16.5259 7.28693 17 8.43153 17 9.625ZM14.75 9.625C14.75 10.2217 14.5129 10.794 14.091 11.216C13.669 11.6379 13.0967 11.875 12.5 11.875C11.9033 11.875 11.331 11.6379 10.909 11.216C10.4871 10.794 10.25 10.2217 10.25 9.625C10.25 9.02826 10.4871 8.45597 10.909 8.03401C11.331 7.61205 11.9033 7.375 12.5 7.375C13.0967 7.375 13.669 7.61205 14.091 8.03401C14.5129 8.45597 14.75 9.02826 14.75 9.625Z" fill="#333333"/>
<path fill-rule="evenodd" clip-rule="evenodd" d="M12.5 0.625C5.66563 0.625 0.125 6.16563 0.125 13C0.125 19.8344 5.66563 25.375 12.5 25.375C19.3344 25.375 24.875 19.8344 24.875 13C24.875 6.16563 19.3344 0.625 12.5 0.625ZM2.375 13C2.375 15.3512 3.17712 17.5157 4.5215 19.2347C5.46563 17.9949 6.68364 16.9901 8.08036 16.2989C9.47709 15.6076 11.0147 15.2486 12.5731 15.25C14.1114 15.2485 15.6297 15.5982 17.0123 16.2724C18.3949 16.9465 19.6055 17.9274 20.5516 19.1403C21.5264 17.8618 22.1827 16.3696 22.4663 14.7872C22.7498 13.2047 22.6525 11.5775 22.1823 10.0401C21.7121 8.50274 20.8826 7.09943 19.7624 5.94629C18.6422 4.79316 17.2635 3.92334 15.7404 3.40882C14.2173 2.8943 12.5936 2.74987 11.0036 2.98747C9.41359 3.22507 7.90301 3.83788 6.59687 4.77519C5.29072 5.71249 4.22654 6.94735 3.49238 8.3776C2.75823 9.80784 2.3752 11.3923 2.375 13V13ZM12.5 23.125C10.1757 23.1285 7.92155 22.3289 6.119 20.8615C6.84455 19.8228 7.81026 18.9748 8.93397 18.3895C10.0577 17.8043 11.3061 17.4991 12.5731 17.5C13.8243 17.499 15.0577 17.7965 16.1708 18.3679C17.2839 18.9392 18.2447 19.7678 18.9732 20.785C17.1567 22.3 14.8654 23.1283 12.5 23.125V23.125Z" fill="#333333"/>
</svg>
