<svg width="24" height="25" viewBox="0 0 24 25" fill="none" xmlns="http://www.w3.org/2000/svg">
<path d="M19 7.5H11V14.5H3V5.5H1V20.5H3V17.5H21V20.5H23V11.5C23 10.4391 22.5786 9.42172 21.8284 8.67157C21.0783 7.92143 20.0609 7.5 19 7.5ZM7 13.5C7.79565 13.5 8.55871 13.1839 9.12132 12.6213C9.68393 12.0587 10 11.2956 10 10.5C10 9.70435 9.68393 8.94129 9.12132 8.37868C8.55871 7.81607 7.79565 7.5 7 7.5C6.20435 7.5 5.44129 7.81607 4.87868 8.37868C4.31607 8.94129 4 9.70435 4 10.5C4 11.2956 4.31607 12.0587 4.87868 12.6213C5.44129 13.1839 6.20435 13.5 7 13.5Z" fill="#004165"/>
</svg>
