<svg width="596" height="70" viewBox="0 0 596 70" fill="none" xmlns="http://www.w3.org/2000/svg">
<mask id="path-1-inside-1_3777_6863" fill="white">
<path d="M0 20C0 8.9543 8.9543 0 20 0H576C587.046 0 596 8.95431 596 20V50C596 61.0457 587.046 70 576 70H20C8.95431 70 0 61.0457 0 50V20Z"/>
</mask>
<path d="M0 20C0 8.9543 8.9543 0 20 0H576C587.046 0 596 8.95431 596 20V50C596 61.0457 587.046 70 576 70H20C8.95431 70 0 61.0457 0 50V20Z" fill="white" fill-opacity="0.25"/>
<path d="M-3 20C-3 7.29745 7.29745 -3 20 -3H576C588.703 -3 599 7.29745 599 20H593C593 10.6112 585.389 3 576 3H20C10.6112 3 3 10.6112 3 20H-3ZM599 50C599 62.7025 588.703 73 576 73H20C7.29745 73 -3 62.7025 -3 50H3C3 59.3888 10.6112 67 20 67H576C585.389 67 593 59.3888 593 50H599ZM20 73C7.29745 73 -3 62.7025 -3 50V20C-3 7.29745 7.29745 -3 20 -3V3C10.6112 3 3 10.6112 3 20V50C3 59.3888 10.6112 67 20 67V73ZM576 -3C588.703 -3 599 7.29745 599 20V50C599 62.7025 588.703 73 576 73V67C585.389 67 593 59.3888 593 50V20C593 10.6112 585.389 3 576 3V-3Z" fill="url(#paint0_linear_3777_6863)" mask="url(#path-1-inside-1_3777_6863)"/>
<defs>
<linearGradient id="paint0_linear_3777_6863" x1="298" y1="0" x2="298" y2="70" gradientUnits="userSpaceOnUse">
<stop stop-color="#DDC8BF"/>
<stop offset="1" stop-color="#A7C4D4"/>
</linearGradient>
</defs>
</svg>
