<svg fill="none" height="36" viewBox="0 0 36 36" width="36" xmlns="http://www.w3.org/2000/svg"><path d="m6 33c-.825 0-1.531-.2935-2.118-.8805-.588-.588-.882-1.2945-.882-2.1195v-16.725c0-2.125.55-3.969 1.65-5.532 1.1-1.562 2.65-2.743 4.65-3.543 1.35-.525 2.7875-.8565 4.3125-.9945 1.525-.137 2.9875-.2055 4.3875-.2055s2.8625.0685 4.3875.2055c1.525.138 2.9625.4695 4.3125.9945 2 .8 3.55 1.981 4.65 3.543 1.1 1.563 1.65 3.407 1.65 5.532v16.725c0 .825-.2935 1.5315-.8805 2.1195-.588.587-1.2945.8805-2.1195.8805zm5.25-13.5h13.5v-6h-13.5zm12 5.25c.425 0 .781-.144 1.068-.432.288-.287.432-.643.432-1.068s-.144-.7815-.432-1.0695c-.287-.287-.643-.4305-1.068-.4305s-.781.1435-1.068.4305c-.288.288-.432.6445-.432 1.0695s.144.781.432 1.068c.287.288.643.432 1.068.432zm-10.5 0c.425 0 .7815-.144 1.0695-.432.287-.287.4305-.643.4305-1.068s-.1435-.7815-.4305-1.0695c-.288-.287-.6445-.4305-1.0695-.4305s-.781.1435-1.068.4305c-.288.288-.432.6445-.432 1.0695s.144.781.432 1.068c.287.288.643.432 1.068.432zm.4875 5.25c.075 0 .325-.1125.75-.3375l1.9125-1.9125h4.125l1.9125 1.9125c.075.075.3375.1875.7875.3375.125 0 .375-.1.75-.3.275-.225.4125-.5.4125-.825s-.1125-.6-.3375-.825l-.375-.375c1.1-.15 2.0125-.644 2.7375-1.482.725-.837 1.0875-1.818 1.0875-2.943v-9.75c0-1.95-.875-3.1875-2.625-3.7125s-3.875-.7875-6.375-.7875c-2.275 0-4.3435.2625-6.2055.7875-1.863.525-2.7945 1.7625-2.7945 3.7125v9.75c0 1.125.3625 2.106 1.0875 2.943.725.838 1.6375 1.332 2.7375 1.482l-.4125.4125c-.225.225-.3375.4935-.3375.8055 0 .313.125.582.375.807.1.1.3625.2.7875.3z" fill="#004165"/></svg>