<svg width="24" height="24" viewBox="0 0 24 24" fill="none" xmlns="http://www.w3.org/2000/svg">
<rect x="0.5" y="0.5" width="23" height="23" rx="1" fill="white"/>
<path fill-rule="evenodd" clip-rule="evenodd" d="M19.776 12.1842C19.776 11.6098 19.7245 11.0575 19.6287 10.5273H12V13.6606H16.3593C16.1715 14.6731 15.6008 15.5309 14.743 16.1053V18.1377H17.3607C18.8924 16.7275 19.776 14.651 19.776 12.1842Z" fill="#4285F4"/>
<path fill-rule="evenodd" clip-rule="evenodd" d="M12.0002 20.1001C14.1872 20.1001 16.0207 19.3747 17.3609 18.1377L14.7431 16.1053C14.0178 16.5913 13.09 16.8785 12.0002 16.8785C9.89049 16.8785 8.10481 15.4536 7.46785 13.5391H4.76172V15.6377C6.09454 18.2849 8.83381 20.1001 12.0002 20.1001Z" fill="#34A853"/>
<path fill-rule="evenodd" clip-rule="evenodd" d="M7.46612 13.538C7.30412 13.052 7.21207 12.5328 7.21207 11.999C7.21207 11.4651 7.30412 10.946 7.46612 10.46V8.36133H4.75998C4.21139 9.45483 3.89844 10.6919 3.89844 11.999C3.89844 13.306 4.21139 14.5431 4.75998 15.6366L7.46612 13.538Z" fill="#FBBC05"/>
<path fill-rule="evenodd" clip-rule="evenodd" d="M12.0002 7.12003C13.1894 7.12003 14.2571 7.52871 15.0966 8.33135L17.4198 6.00812C16.017 4.70107 14.1835 3.89844 12.0002 3.89844C8.83381 3.89844 6.09454 5.71357 4.76172 8.3608L7.46785 10.4594C8.10481 8.54489 9.89049 7.12003 12.0002 7.12003Z" fill="#EA4335"/>
</svg>
