<svg width="36" height="36" viewBox="0 0 36 36" fill="none" xmlns="http://www.w3.org/2000/svg">
<path d="M6 33C5.175 33 4.469 32.7065 3.882 32.1195C3.294 31.5315 3 30.825 3 30V13.275C3 11.15 3.55 9.306 4.65 7.743C5.75 6.181 7.3 5 9.3 4.2C10.65 3.675 12.0875 3.3435 13.6125 3.2055C15.1375 3.0685 16.6 3 18 3C19.4 3 20.8625 3.0685 22.3875 3.2055C23.9125 3.3435 25.35 3.675 26.7 4.2C28.7 5 30.25 6.181 31.35 7.743C32.45 9.306 33 11.15 33 13.275V30C33 30.825 32.7065 31.5315 32.1195 32.1195C31.5315 32.7065 30.825 33 30 33H6ZM11.25 19.5H24.75V13.5H11.25V19.5ZM23.25 24.75C23.675 24.75 24.031 24.606 24.318 24.318C24.606 24.031 24.75 23.675 24.75 23.25C24.75 22.825 24.606 22.4685 24.318 22.1805C24.031 21.8935 23.675 21.75 23.25 21.75C22.825 21.75 22.469 21.8935 22.182 22.1805C21.894 22.4685 21.75 22.825 21.75 23.25C21.75 23.675 21.894 24.031 22.182 24.318C22.469 24.606 22.825 24.75 23.25 24.75ZM12.75 24.75C13.175 24.75 13.5315 24.606 13.8195 24.318C14.1065 24.031 14.25 23.675 14.25 23.25C14.25 22.825 14.1065 22.4685 13.8195 22.1805C13.5315 21.8935 13.175 21.75 12.75 21.75C12.325 21.75 11.969 21.8935 11.682 22.1805C11.394 22.4685 11.25 22.825 11.25 23.25C11.25 23.675 11.394 24.031 11.682 24.318C11.969 24.606 12.325 24.75 12.75 24.75ZM13.2375 30C13.3125 30 13.5625 29.8875 13.9875 29.6625L15.9 27.75H20.025L21.9375 29.6625C22.0125 29.7375 22.275 29.85 22.725 30C22.85 30 23.1 29.9 23.475 29.7C23.75 29.475 23.8875 29.2 23.8875 28.875C23.8875 28.55 23.775 28.275 23.55 28.05L23.175 27.675C24.275 27.525 25.1875 27.031 25.9125 26.193C26.6375 25.356 27 24.375 27 23.25V13.5C27 11.55 26.125 10.3125 24.375 9.7875C22.625 9.2625 20.5 9 18 9C15.725 9 13.6565 9.2625 11.7945 9.7875C9.9315 10.3125 9 11.55 9 13.5V23.25C9 24.375 9.3625 25.356 10.0875 26.193C10.8125 27.031 11.725 27.525 12.825 27.675L12.4125 28.0875C12.1875 28.3125 12.075 28.581 12.075 28.893C12.075 29.206 12.2 29.475 12.45 29.7C12.55 29.8 12.8125 29.9 13.2375 30Z" fill="black"/>
</svg>
