<svg width="193" height="182" viewBox="0 0 193 182" fill="none" xmlns="http://www.w3.org/2000/svg">
<g opacity="0.4">
<path d="M82.5892 40.1473C78.6998 53.8587 64.4315 61.821 50.72 57.9315C37.0086 54.0421 29.0463 39.7738 32.9358 26.0624C36.8252 12.351 51.0935 4.38868 64.8049 8.27811C78.5163 12.1675 86.4786 26.4358 82.5892 40.1473Z" fill="#FFF1DC" stroke="#FFE2B6" stroke-width="2"/>
<path d="M168.821 123.215L168.821 123.215C168.821 123.214 168.821 123.212 168.82 123.211C168.816 123.194 168.805 123.155 168.654 123.103C168.439 123.03 168.062 122.983 167.44 123.01C166.296 123.06 164.7 123.333 162.543 123.702C162.355 123.734 162.162 123.767 161.965 123.801C157.12 124.628 150.023 125.772 140.619 125.605L140.611 125.605C126.346 125.234 112.297 122.051 99.2667 116.237C92.5993 113.468 86.3674 109.747 80.7645 105.191L80.757 105.185C73.6434 99.2837 70.4596 94.1615 67.7829 89.6417C67.6676 89.4469 67.5533 89.2535 67.4398 89.0615C64.936 84.8242 62.8144 81.2339 58.0895 77.8636L58.6702 77.0495L58.0895 77.8636C53.1668 74.3521 46.4682 71.6424 39.8403 70.7814C33.1993 69.9187 26.793 70.9282 22.2847 74.6326L168.821 123.215ZM168.821 123.215C168.863 123.33 168.888 123.703 168.456 124.488C168.049 125.228 167.34 126.139 166.335 127.189C164.333 129.283 161.294 131.786 157.593 134.389C150.198 139.591 140.294 145.099 131.072 148.462M168.821 123.215L131.072 148.462M131.072 148.462C120.333 152.105 109.32 154.88 98.1394 156.759C97.8675 156.802 97.6386 156.838 97.4663 156.864C97.3796 156.877 97.3086 156.888 97.2543 156.896C97.2272 156.899 97.2054 156.902 97.1886 156.905L97.1688 156.907C97.1637 156.908 97.1616 156.908 97.1617 156.908L97.1468 156.91L97.1319 156.912C89.6525 157.968 82.0694 158.052 74.5706 157.162C67.7311 156.345 46.912 153.837 32.6326 139.557C29.7123 136.632 14.9164 121.651 15.0142 98.69L15.0142 98.6896C15.0286 95.0029 15.0504 90.4506 15.986 86.0557C16.92 81.6682 18.7441 77.543 22.2846 74.6327L131.072 148.462Z" fill="#FFF1DC" stroke="#FFE2B6" stroke-width="2"/>
<path d="M144.073 102.428L144.047 102.434L144.022 102.443C138.605 104.198 132.933 105.093 127.215 105.095C120.642 104.821 116.119 102.702 107.554 98.6553C102.476 96.2481 97.5959 93.4513 92.9597 90.2916C99.0218 88.617 105.248 87.5562 111.543 87.1269C120.543 86.5287 129.673 85.9302 139.682 90.2739C144.716 92.4897 149.288 95.6095 153.166 99.4678C150.194 100.618 147.158 101.606 144.073 102.428Z" fill="#FFF1DC" stroke="#FFE2B6" stroke-width="2"/>
<path d="M139.406 54.0738L139.393 54.1005L139.381 54.1279C136.85 59.8849 133.307 65.14 128.921 69.6422C123.717 74.4645 118.463 75.9627 108.445 78.7909C102.254 80.529 95.9213 81.7018 89.5233 82.2955C92.6809 75.8851 96.5872 69.8701 101.161 64.3775C107.472 56.8338 113.875 49.2141 125.216 45.5573C131.265 43.6869 137.628 43.0901 143.907 43.7989C142.618 47.3124 141.115 50.7438 139.406 54.0738Z" fill="#FFF1DC" stroke="#FFE2B6" stroke-width="2"/>
</g>
</svg>
