<svg width="217" height="212" viewBox="0 0 217 212" fill="none" xmlns="http://www.w3.org/2000/svg">
<g opacity="0.4">
<path d="M160.871 111.254C149.92 101.778 148.725 85.2201 158.2 74.2699C167.676 63.3197 184.234 62.1241 195.184 71.5996C206.134 81.075 207.33 97.6333 197.855 108.584C188.379 119.534 171.821 120.729 160.871 111.254Z" fill="#FFF1DC" stroke="#FFE2B6" stroke-width="2"/>
<path d="M47.4014 154.904L47.4019 154.904C47.4035 154.905 47.4052 154.905 47.4071 154.905C47.4291 154.908 47.4727 154.914 47.5888 154.794C47.7512 154.626 47.9573 154.296 48.1999 153.712C48.6458 152.638 49.0806 151.05 49.6674 148.908C49.7187 148.721 49.7711 148.529 49.8249 148.334C51.1456 143.521 53.1426 136.501 57.3358 127.922L57.3394 127.915C63.8088 114.952 72.773 103.395 83.7196 93.9062C89.1312 88.9628 95.2306 84.8287 101.829 81.6321L101.837 81.6279C110.321 77.6198 116.399 76.8917 121.707 76.3712C121.936 76.3487 122.163 76.3267 122.389 76.3048C127.363 75.8218 131.581 75.4123 136.714 72.5117L137.206 73.3823L136.714 72.5117C142.063 69.4902 147.436 64.4898 151.077 58.7597C154.725 53.0185 156.551 46.6862 155.079 40.9411L47.4014 154.904ZM47.4014 154.904C47.2713 154.893 46.9135 154.751 46.3765 154.015C45.8699 153.321 45.3354 152.276 44.8004 150.9C43.7341 148.156 42.7369 144.285 41.9319 139.76C40.3234 130.72 39.511 119.241 40.3795 109.309M47.4014 154.904L40.3795 109.309M40.3795 109.309C41.642 97.862 43.8217 86.5365 46.8976 75.4418C46.9745 75.1731 47.0398 74.9473 47.0897 74.7775C47.1148 74.692 47.1356 74.6221 47.1517 74.5688C47.1598 74.5421 47.1664 74.5207 47.1716 74.5042L47.1777 74.4848C47.1789 74.4811 47.1796 74.479 47.1799 74.4782L47.18 74.4777L47.1849 74.4634L47.1893 74.449C49.4315 67.1126 52.6129 60.0985 56.6546 53.5806C60.3448 47.6392 71.6008 29.5583 90.88 22.5545C94.8262 21.1243 114.972 13.9466 136.061 23.905L136.061 23.9051C139.447 25.5023 143.627 27.479 147.27 30.2293C150.907 32.9751 153.921 36.4285 155.079 40.9409L40.3795 109.309Z" fill="#FFF1DC" stroke="#FFE2B6" stroke-width="2"/>
<path d="M77.1461 141.049L77.1507 141.023L77.154 140.996C77.8668 135.257 79.481 129.651 81.9367 124.389C85.0151 118.456 88.9107 115.203 96.3136 109.061C100.719 105.416 105.399 102.122 110.31 99.2097C109.246 105.519 107.544 111.716 105.23 117.703C101.914 126.239 98.54 134.9 90.24 142.245C86.031 145.931 81.1866 148.801 75.9604 150.711C76.1793 147.475 76.5751 144.249 77.1461 141.049Z" fill="#FFF1DC" stroke="#FFE2B6" stroke-width="2"/>
<path d="M123.641 157.539L123.622 157.515L123.602 157.493C119.392 152.69 116.078 147.17 113.82 141.199C111.618 134.335 112.498 128.853 114.2 118.421C115.263 111.969 116.908 105.629 119.116 99.4781C123.665 105.144 127.527 111.331 130.62 117.909C134.849 126.956 139.11 136.125 137.601 148.135C136.722 154.513 134.532 160.632 131.175 166.11C128.491 163.41 125.974 160.548 123.641 157.539Z" fill="#FFF1DC" stroke="#FFE2B6" stroke-width="2"/>
</g>
</svg>
