<svg width="24" height="24" viewBox="0 0 24 24" fill="none" xmlns="http://www.w3.org/2000/svg">
<path d="M21.375 10.1625C21.7985 10.0761 22.1791 9.84593 22.4525 9.51109C22.7258 9.17625 22.8751 8.75725 22.875 8.325V6C22.8725 5.50348 22.6742 5.028 22.3231 4.6769C21.972 4.3258 21.4965 4.12746 21 4.125H3C2.50348 4.12746 2.028 4.3258 1.6769 4.6769C1.3258 5.028 1.12746 5.50348 1.125 6V8.325C1.12491 8.75725 1.27417 9.17625 1.54751 9.51109C1.82085 9.84593 2.20149 10.0761 2.625 10.1625C3.04886 10.2486 3.42993 10.4785 3.70364 10.8134C3.97736 11.1483 4.12688 11.5675 4.12688 12C4.12688 12.4325 3.97736 12.8517 3.70364 13.1866C3.42993 13.5215 3.04886 13.7514 2.625 13.8375C2.20149 13.9239 1.82085 14.1541 1.54751 14.4889C1.27417 14.8238 1.12491 15.2428 1.125 15.675V18C1.12746 18.4965 1.3258 18.972 1.6769 19.3231C2.028 19.6742 2.50348 19.8725 3 19.875H21C21.4965 19.8725 21.972 19.6742 22.3231 19.3231C22.6742 18.972 22.8725 18.4965 22.875 18V15.675C22.8751 15.2428 22.7258 14.8238 22.4525 14.4889C22.1791 14.1541 21.7985 13.9239 21.375 13.8375C20.9511 13.7514 20.5701 13.5215 20.2964 13.1866C20.0226 12.8517 19.8731 12.4325 19.8731 12C19.8731 11.5675 20.0226 11.1483 20.2964 10.8134C20.5701 10.4785 20.9511 10.2486 21.375 10.1625ZM3.375 15.9656C4.23638 15.719 4.99402 15.1986 5.53338 14.4831C6.07273 13.7676 6.36446 12.896 6.36446 12C6.36446 11.104 6.07273 10.2324 5.53338 9.5169C4.99402 8.80143 4.23638 8.28102 3.375 8.03437V6.375H7.875V17.625H3.375V15.9656ZM20.625 15.9656V17.625H10.125V6.375H20.625V8.03437C19.7636 8.28102 19.006 8.80143 18.4666 9.5169C17.9273 10.2324 17.6355 11.104 17.6355 12C17.6355 12.896 17.9273 13.7676 18.4666 14.4831C19.006 15.1986 19.7636 15.719 20.625 15.9656Z" fill="#333333"/>
</svg>
